<mxfile host="app.diagrams.net" modified="2022-11-22T06:43:58.623Z" agent="5.0 (Windows NT 10.0; Win64; x64) AppleWebKit/537.36 (KHTML, like Gecko) Chrome/106.0.0.0 YaBrowser/22.11.0.2424 Yowser/2.5 Safari/537.36" etag="8NQ2u-hEmXztWisHmxwj" version="20.5.3" type="github">
  <diagram id="sq5tUa9uOOfnAcCKqO6m" name="Страница 1">
    <mxGraphModel dx="2201" dy="789" grid="1" gridSize="10" guides="1" tooltips="1" connect="1" arrows="1" fold="1" page="1" pageScale="1" pageWidth="827" pageHeight="1169" math="0" shadow="0">
      <root>
        <mxCell id="0" />
        <mxCell id="1" parent="0" />
        <mxCell id="_ZlFWhFxyCgxul9LkAHd-3" value="" style="rounded=0;whiteSpace=wrap;html=1;fillStyle=zigzag-line;fillColor=none;" parent="1" vertex="1">
          <mxGeometry x="220" y="460" width="510" height="440" as="geometry" />
        </mxCell>
        <mxCell id="K7c1DOycUjJ4pG6AKwoJ-4" style="edgeStyle=orthogonalEdgeStyle;rounded=0;orthogonalLoop=1;jettySize=auto;html=1;exitX=0.5;exitY=0;exitDx=0;exitDy=0;entryX=0.5;entryY=1;entryDx=0;entryDy=0;dashed=1;endArrow=none;endFill=0;" parent="1" source="K7c1DOycUjJ4pG6AKwoJ-1" target="K7c1DOycUjJ4pG6AKwoJ-3" edge="1">
          <mxGeometry relative="1" as="geometry" />
        </mxCell>
        <mxCell id="K7c1DOycUjJ4pG6AKwoJ-1" value="Выбор&amp;nbsp; товаров" style="ellipse;whiteSpace=wrap;html=1;" parent="1" vertex="1">
          <mxGeometry x="540" y="585" width="140" height="40" as="geometry" />
        </mxCell>
        <mxCell id="K7c1DOycUjJ4pG6AKwoJ-2" value="Покупатель" style="shape=umlActor;verticalLabelPosition=bottom;verticalAlign=top;html=1;" parent="1" vertex="1">
          <mxGeometry x="595" y="360" width="30" height="60" as="geometry" />
        </mxCell>
        <mxCell id="K7c1DOycUjJ4pG6AKwoJ-5" style="edgeStyle=orthogonalEdgeStyle;rounded=0;orthogonalLoop=1;jettySize=auto;html=1;exitX=0.5;exitY=0;exitDx=0;exitDy=0;entryX=0.5;entryY=0.5;entryDx=0;entryDy=0;entryPerimeter=0;endArrow=none;endFill=0;" parent="1" source="K7c1DOycUjJ4pG6AKwoJ-3" target="K7c1DOycUjJ4pG6AKwoJ-2" edge="1">
          <mxGeometry relative="1" as="geometry" />
        </mxCell>
        <mxCell id="K7c1DOycUjJ4pG6AKwoJ-3" value="Вход на сайт магазина" style="ellipse;whiteSpace=wrap;html=1;" parent="1" vertex="1">
          <mxGeometry x="540" y="490" width="140" height="40" as="geometry" />
        </mxCell>
        <mxCell id="K7c1DOycUjJ4pG6AKwoJ-6" value="Консультант по выбору комлектующих" style="shape=umlActor;verticalLabelPosition=bottom;verticalAlign=top;html=1;" parent="1" vertex="1">
          <mxGeometry x="80" y="480" width="30" height="60" as="geometry" />
        </mxCell>
        <mxCell id="K7c1DOycUjJ4pG6AKwoJ-11" style="edgeStyle=orthogonalEdgeStyle;rounded=0;orthogonalLoop=1;jettySize=auto;html=1;exitX=0;exitY=0.5;exitDx=0;exitDy=0;entryX=0.5;entryY=0.5;entryDx=0;entryDy=0;entryPerimeter=0;endArrow=none;endFill=0;" parent="1" source="K7c1DOycUjJ4pG6AKwoJ-7" target="K7c1DOycUjJ4pG6AKwoJ-6" edge="1">
          <mxGeometry relative="1" as="geometry" />
        </mxCell>
        <mxCell id="K7c1DOycUjJ4pG6AKwoJ-7" value="Советы по выбору товара" style="ellipse;whiteSpace=wrap;html=1;" parent="1" vertex="1">
          <mxGeometry x="249" y="490" width="140" height="40" as="geometry" />
        </mxCell>
        <mxCell id="K7c1DOycUjJ4pG6AKwoJ-12" value="Завскладом" style="shape=umlActor;verticalLabelPosition=bottom;verticalAlign=top;html=1;" parent="1" vertex="1">
          <mxGeometry x="80" y="770" width="30" height="60" as="geometry" />
        </mxCell>
        <mxCell id="K7c1DOycUjJ4pG6AKwoJ-14" style="edgeStyle=orthogonalEdgeStyle;rounded=0;orthogonalLoop=1;jettySize=auto;html=1;exitX=0;exitY=0.5;exitDx=0;exitDy=0;entryX=0.5;entryY=0.5;entryDx=0;entryDy=0;entryPerimeter=0;endArrow=none;endFill=0;" parent="1" source="K7c1DOycUjJ4pG6AKwoJ-13" target="K7c1DOycUjJ4pG6AKwoJ-12" edge="1">
          <mxGeometry relative="1" as="geometry" />
        </mxCell>
        <mxCell id="K7c1DOycUjJ4pG6AKwoJ-13" value="Учет поступления и выдачи товаров&amp;nbsp;" style="ellipse;whiteSpace=wrap;html=1;" parent="1" vertex="1">
          <mxGeometry x="244" y="780" width="140" height="40" as="geometry" />
        </mxCell>
        <mxCell id="K7c1DOycUjJ4pG6AKwoJ-15" value="Менеджер по работе с заказом" style="shape=umlActor;verticalLabelPosition=bottom;verticalAlign=top;html=1;" parent="1" vertex="1">
          <mxGeometry x="595" y="900" width="30" height="60" as="geometry" />
        </mxCell>
        <mxCell id="K7c1DOycUjJ4pG6AKwoJ-18" style="edgeStyle=orthogonalEdgeStyle;rounded=0;orthogonalLoop=1;jettySize=auto;html=1;exitX=0.5;exitY=1;exitDx=0;exitDy=0;endArrow=none;endFill=0;entryX=0.5;entryY=0;entryDx=0;entryDy=0;entryPerimeter=0;" parent="1" source="K7c1DOycUjJ4pG6AKwoJ-17" target="K7c1DOycUjJ4pG6AKwoJ-15" edge="1">
          <mxGeometry relative="1" as="geometry">
            <mxPoint x="610" y="880" as="targetPoint" />
          </mxGeometry>
        </mxCell>
        <mxCell id="K7c1DOycUjJ4pG6AKwoJ-17" value="Создание заказа" style="ellipse;whiteSpace=wrap;html=1;" parent="1" vertex="1">
          <mxGeometry x="540" y="810" width="140" height="40" as="geometry" />
        </mxCell>
        <mxCell id="K7c1DOycUjJ4pG6AKwoJ-20" style="edgeStyle=orthogonalEdgeStyle;rounded=0;orthogonalLoop=1;jettySize=auto;html=1;exitX=0.5;exitY=1;exitDx=0;exitDy=0;entryX=0.5;entryY=0;entryDx=0;entryDy=0;fontSize=10;endArrow=none;endFill=0;dashed=1;startArrow=none;" parent="1" source="PS2R8-7R67Hp0dpbbxJd-1" target="K7c1DOycUjJ4pG6AKwoJ-17" edge="1">
          <mxGeometry relative="1" as="geometry" />
        </mxCell>
        <mxCell id="K7c1DOycUjJ4pG6AKwoJ-19" value="&lt;font style=&quot;font-size: 10px;&quot;&gt;Передача информации о заказе покупателю&lt;/font&gt;" style="ellipse;whiteSpace=wrap;html=1;" parent="1" vertex="1">
          <mxGeometry x="540" y="650" width="140" height="40" as="geometry" />
        </mxCell>
        <mxCell id="K7c1DOycUjJ4pG6AKwoJ-22" style="edgeStyle=orthogonalEdgeStyle;rounded=0;orthogonalLoop=1;jettySize=auto;html=1;exitX=0.5;exitY=1;exitDx=0;exitDy=0;entryX=0.5;entryY=0;entryDx=0;entryDy=0;dashed=1;fontSize=10;endArrow=none;endFill=0;" parent="1" source="K7c1DOycUjJ4pG6AKwoJ-21" target="K7c1DOycUjJ4pG6AKwoJ-13" edge="1">
          <mxGeometry relative="1" as="geometry" />
        </mxCell>
        <mxCell id="K7c1DOycUjJ4pG6AKwoJ-21" value="&lt;font style=&quot;font-size: 12px;&quot;&gt;Заказ необходимых товаров&lt;/font&gt;" style="ellipse;whiteSpace=wrap;html=1;" parent="1" vertex="1">
          <mxGeometry x="244" y="690" width="140" height="40" as="geometry" />
        </mxCell>
        <mxCell id="PS2R8-7R67Hp0dpbbxJd-1" value="Отправка заказа" style="ellipse;whiteSpace=wrap;html=1;" vertex="1" parent="1">
          <mxGeometry x="540" y="730" width="140" height="40" as="geometry" />
        </mxCell>
        <mxCell id="PS2R8-7R67Hp0dpbbxJd-2" value="" style="edgeStyle=orthogonalEdgeStyle;rounded=0;orthogonalLoop=1;jettySize=auto;html=1;exitX=0.5;exitY=1;exitDx=0;exitDy=0;entryX=0.5;entryY=0;entryDx=0;entryDy=0;fontSize=10;endArrow=none;endFill=0;dashed=1;" edge="1" parent="1" source="K7c1DOycUjJ4pG6AKwoJ-19" target="PS2R8-7R67Hp0dpbbxJd-1">
          <mxGeometry relative="1" as="geometry">
            <mxPoint x="610" y="690" as="sourcePoint" />
            <mxPoint x="610" y="810" as="targetPoint" />
          </mxGeometry>
        </mxCell>
      </root>
    </mxGraphModel>
  </diagram>
</mxfile>
